<?xml version="1.0" standalone="no"?>
<!DOCTYPE svg PUBLIC "-//W3C//DTD SVG 20010904//EN"
 "http://www.w3.org/TR/2001/REC-SVG-20010904/DTD/svg10.dtd">
<svg version="1.0" xmlns="http://www.w3.org/2000/svg"
 width="518.000000pt" height="518.000000pt" viewBox="0 0 518.000000 518.000000"
 preserveAspectRatio="xMidYMid meet">
<metadata>
Created by potrace 1.16, written by Peter Selinger 2001-2019
</metadata>
<g transform="translate(0.000000,518.000000) scale(0.100000,-0.100000)"
fill="#000000" stroke="none">
<path d="M2880 4771 c0 -17 5 -33 10 -36 13 -8 13 -139 1 -163 -5 -9 -15 -38
-22 -64 -6 -27 -14 -48 -18 -48 -3 0 -12 -15 -20 -32 -16 -38 -17 -39 -116
-140 -41 -43 -80 -78 -85 -78 -5 0 -17 -11 -26 -25 -9 -13 -24 -27 -34 -30
-17 -5 -52 -33 -95 -75 -12 -11 -25 -20 -29 -20 -5 0 -26 -17 -47 -37 -21 -21
-54 -51 -74 -67 -19 -16 -35 -33 -35 -37 0 -5 -10 -19 -22 -32 -41 -43 -59
-71 -65 -99 -3 -16 -9 -28 -14 -28 -5 0 -9 -31 -9 -70 0 -38 4 -70 9 -70 5 0
11 -18 15 -39 3 -22 12 -46 19 -53 7 -7 21 -30 30 -50 10 -21 22 -38 27 -38 6
0 10 -5 10 -12 0 -7 11 -24 25 -38 61 -63 222 -225 240 -241 22 -20 55 -25 55
-9 0 6 -4 10 -8 10 -5 0 -15 18 -22 41 -8 23 -20 43 -27 46 -7 3 -13 10 -13
17 0 6 -13 27 -30 46 -16 19 -29 40 -30 47 0 7 -6 16 -13 20 -7 4 -19 23 -26
41 -8 17 -17 32 -22 32 -4 0 -14 19 -21 43 -6 23 -17 45 -23 49 -15 11 -13
170 3 176 6 2 12 10 12 18 0 18 21 57 38 67 6 4 12 14 12 20 0 13 151 167 164
167 4 0 22 16 40 35 19 19 38 35 43 35 5 0 40 34 79 76 38 42 77 85 87 95 9
10 17 22 17 27 0 4 14 25 30 46 16 22 33 54 36 73 3 18 10 33 14 33 11 0 30
105 30 166 0 59 -18 154 -29 154 -4 0 -15 18 -25 40 -21 48 -46 53 -46 11z"/>
<path d="M3250 4182 c0 -5 -36 -17 -80 -27 -44 -10 -80 -21 -80 -25 0 -4 -20
-13 -45 -20 -25 -7 -45 -16 -45 -19 0 -4 -22 -15 -50 -25 -27 -10 -50 -21 -50
-25 0 -4 -16 -13 -35 -20 -19 -7 -35 -16 -35 -21 0 -5 -10 -12 -22 -16 -20 -6
-135 -116 -177 -169 -49 -61 -53 -292 -6 -338 7 -7 16 -24 20 -37 7 -25 12
-31 57 -81 13 -14 30 -38 38 -55 8 -16 19 -32 24 -35 15 -12 10 -107 -8 -124
-9 -9 -16 -22 -16 -29 0 -7 -13 -27 -30 -44 -34 -36 -36 -42 -14 -42 32 0 80
31 145 93 84 80 104 127 97 231 -4 63 -10 80 -39 122 -19 27 -37 51 -40 54 -3
3 -14 20 -23 38 -9 17 -21 32 -26 32 -5 0 -14 25 -21 55 -14 63 -1 119 38 166
13 15 23 32 23 38 0 6 4 11 8 11 8 0 73 52 145 115 10 9 29 21 42 27 14 6 25
14 25 18 0 4 18 15 39 25 22 10 42 24 45 31 3 8 11 14 17 14 23 0 98 55 99 73
0 9 -4 17 -10 17 -5 0 -10 -4 -10 -8z"/>
<path d="M3336 3150 c-28 -9 -66 -37 -66 -49 0 -4 44 -7 98 -6 l98 0 37 -35
c20 -19 37 -40 37 -46 0 -7 5 -14 12 -16 14 -5 15 -107 0 -117 -5 -3 -12 -16
-16 -27 -4 -12 -18 -35 -31 -50 -14 -16 -35 -41 -47 -56 -13 -15 -27 -27 -32
-27 -4 -1 -25 -14 -45 -29 -20 -16 -44 -32 -53 -35 -10 -4 -18 -11 -18 -17 0
-5 -7 -10 -15 -10 -8 0 -23 -8 -33 -18 -10 -10 -26 -21 -35 -25 -9 -3 -17 -12
-17 -18 0 -13 101 -4 110 10 3 4 33 16 68 26 34 10 62 22 62 27 0 4 7 8 15 8
8 0 24 9 34 19 10 10 30 22 43 26 31 10 117 100 145 153 27 51 32 152 8 192
-8 14 -17 33 -21 42 -8 22 -72 66 -115 78 -41 12 -183 12 -223 0z"/>
<path d="M2073 3133 c-24 -2 -43 -8 -43 -12 0 -4 -31 -13 -70 -20 -38 -7 -70
-16 -70 -20 0 -4 -27 -15 -60 -25 -33 -10 -60 -22 -60 -26 0 -4 -11 -11 -25
-14 -14 -4 -25 -13 -25 -21 0 -8 -4 -15 -10 -15 -5 0 -10 -5 -10 -10 0 -20 35
-47 75 -60 22 -7 49 -17 60 -21 37 -17 250 -29 492 -29 242 0 544 16 553 29 3
4 50 13 105 20 69 9 115 22 150 40 28 14 52 29 55 32 3 4 15 9 28 13 26 9 31
40 5 32 -10 -2 -74 -10 -143 -17 -69 -7 -127 -16 -130 -19 -7 -10 -312 -30
-448 -30 -68 0 -112 -4 -112 -10 0 -6 -28 -10 -65 -10 -37 0 -65 4 -65 10 0 6
-36 10 -87 10 -202 0 -276 41 -150 84 26 9 54 16 62 16 8 0 15 4 15 9 0 5 29
15 65 22 36 7 65 16 65 21 0 4 7 8 15 8 8 0 15 5 15 10 0 10 -95 11 -187 3z"/>
<path d="M2081 2788 c-18 -5 -40 -16 -48 -24 -8 -8 -20 -14 -26 -14 -23 -1
-57 -47 -57 -78 0 -36 35 -68 86 -78 19 -3 34 -9 34 -13 0 -9 115 -31 163 -31
20 0 39 -4 42 -10 4 -6 82 -10 201 -10 123 0 194 4 194 10 0 6 18 10 40 10 59
0 244 22 250 30 3 4 34 12 70 19 36 7 73 14 83 17 28 9 19 32 -18 45 -19 7
-35 16 -35 20 0 4 -13 14 -30 22 -26 14 -45 14 -162 0 -73 -8 -141 -19 -152
-25 -26 -14 -479 -13 -484 1 -2 6 -22 11 -43 11 -33 0 -99 22 -99 34 0 1 9 13
20 26 20 23 27 51 13 49 -5 0 -23 -5 -42 -11z"/>
<path d="M2160 2461 c0 -5 -15 -12 -34 -15 -54 -10 -86 -45 -86 -91 0 -35 5
-43 36 -63 43 -28 107 -52 139 -52 13 0 25 -4 27 -10 4 -13 162 -30 284 -30
125 0 308 18 312 31 2 5 13 9 25 9 33 0 157 33 157 42 0 4 9 8 19 8 49 0 34
42 -21 61 -22 7 -48 20 -56 29 -21 20 -211 18 -223 -2 -11 -18 -461 -18 -467
0 -2 7 -14 12 -27 12 -13 0 -36 5 -51 10 l-27 11 22 23 c19 21 20 24 6 30 -23
8 -35 8 -35 -3z"/>
<path d="M1775 2241 c-6 -4 -38 -14 -72 -21 -35 -7 -63 -16 -63 -19 0 -4 -20
-13 -45 -20 -25 -7 -45 -17 -45 -22 0 -5 -6 -9 -13 -9 -24 0 -67 -55 -67 -85
0 -43 38 -71 108 -80 31 -4 59 -11 62 -15 3 -4 68 -13 145 -20 77 -6 151 -17
164 -24 33 -15 968 -16 979 0 4 5 63 16 132 23 69 8 127 16 130 20 3 4 41 13
85 20 44 7 82 17 83 22 2 5 10 9 17 9 25 0 108 31 122 46 8 8 20 14 26 14 23
1 57 47 57 78 0 33 -30 62 -63 62 -14 0 -17 -4 -12 -17 17 -41 15 -49 -14 -66
-16 -9 -36 -17 -44 -17 -9 0 -17 -4 -19 -10 -1 -5 -37 -15 -78 -22 -41 -7 -77
-15 -80 -19 -7 -8 -194 -27 -345 -35 -66 -3 -129 -10 -140 -15 -25 -12 -571
-5 -720 9 -169 17 -275 33 -275 43 0 5 -8 9 -19 9 -30 0 -81 21 -81 33 1 18
40 42 93 58 26 7 47 16 47 20 0 4 32 10 70 14 71 7 79 12 58 33 -14 14 -169
17 -183 3z"/>
<path d="M3680 2053 c-8 -3 -28 -17 -43 -29 -16 -13 -34 -24 -40 -24 -7 0 -28
-8 -47 -19 -19 -10 -51 -22 -70 -26 -19 -4 -37 -11 -40 -15 -3 -5 -55 -16
-115 -25 -61 -9 -119 -21 -130 -26 -24 -10 -183 -29 -247 -29 -28 0 -48 -5
-50 -12 -6 -18 -795 -19 -806 -2 -8 12 -222 31 -222 19 0 -26 133 -65 220 -65
16 0 30 -6 33 -12 3 -10 110 -13 492 -13 382 0 489 3 493 13 2 7 20 12 43 12
52 0 253 30 259 39 3 4 31 13 63 20 31 7 57 16 57 20 0 3 21 13 46 20 25 8 48
20 51 28 3 8 16 19 29 24 13 4 24 15 24 23 0 7 7 16 15 20 9 3 15 18 15 36 0
30 -3 33 -30 23z"/>
<path d="M1548 1102 c-3 -407 -5 -480 -18 -496 -35 -43 -101 -106 -110 -106
-22 0 -8 -48 25 -83 33 -35 65 -49 65 -28 0 5 13 14 29 19 46 16 121 85 148
137 9 16 18 60 21 97 3 38 9 68 13 68 5 0 9 196 9 435 l0 435 -89 0 -90 0 -3
-478z"/>
<path d="M1940 1338 c-25 -6 -47 -13 -50 -18 -3 -4 -17 -10 -32 -14 -26 -6
-40 -26 -18 -26 6 0 10 -15 10 -32 0 -54 10 -61 66 -48 27 6 57 16 66 21 23
12 148 12 148 0 0 -5 10 -11 23 -15 29 -7 46 -36 54 -91 l6 -45 -82 0 c-44 0
-81 -4 -81 -9 0 -5 -21 -11 -47 -15 -27 -3 -59 -13 -73 -21 -14 -8 -35 -19
-48 -24 -12 -6 -25 -19 -29 -28 -4 -10 -14 -23 -22 -30 -12 -9 -17 -35 -19
-110 -3 -85 0 -102 18 -132 12 -18 30 -35 41 -38 10 -3 19 -9 19 -14 0 -13 70
-29 128 -29 63 0 143 18 157 36 20 25 65 21 65 -6 0 -18 7 -20 65 -20 l65 0 0
253 c0 263 -9 364 -35 383 -8 6 -15 16 -15 22 0 6 -9 14 -20 17 -11 3 -20 10
-20 15 0 28 -239 40 -340 18z m270 -456 l0 -68 -42 -27 c-23 -15 -50 -27 -60
-27 -10 0 -18 -4 -18 -10 0 -5 -11 -10 -25 -10 -14 0 -25 5 -25 10 0 6 -6 10
-12 10 -31 1 -58 38 -58 79 0 73 57 108 178 110 l62 1 0 -68z"/>
<path d="M3230 1338 c-25 -6 -47 -14 -50 -18 -3 -4 -14 -9 -25 -12 -18 -3 -20
-10 -17 -58 2 -30 5 -56 6 -58 7 -6 126 22 126 30 0 12 149 10 163 -2 7 -6 21
-17 31 -24 14 -9 20 -29 24 -70 l4 -56 -76 0 c-42 0 -76 -4 -76 -9 0 -4 -23
-11 -52 -14 -59 -7 -139 -55 -160 -97 -7 -14 -17 -28 -23 -32 -15 -11 -13
-190 3 -195 6 -3 12 -10 12 -18 0 -7 16 -26 36 -43 29 -25 48 -32 102 -38 65
-7 179 7 191 23 3 4 21 16 39 25 l32 17 0 -29 0 -30 70 0 70 0 0 290 c0 160
-4 290 -9 290 -5 0 -11 13 -14 29 -8 37 -62 88 -107 101 -44 12 -240 11 -300
-2z m260 -454 c0 -36 -4 -73 -10 -83 -5 -10 -30 -24 -55 -31 -25 -7 -45 -17
-45 -21 0 -5 -13 -9 -30 -9 -16 0 -30 4 -30 9 0 5 -9 11 -20 14 -39 10 -52 89
-23 138 19 33 63 46 156 48 l57 1 0 -66z"/>
<path d="M2435 1298 c4 -24 11 -45 15 -48 4 -3 15 -39 25 -80 10 -41 21 -79
25 -85 4 -5 13 -34 21 -62 7 -29 16 -53 19 -53 4 0 12 -29 19 -65 7 -36 16
-65 21 -65 4 0 15 -38 25 -85 10 -47 21 -85 26 -85 5 0 9 -9 9 -20 0 -20 5
-21 103 -18 97 3 102 4 105 26 2 12 7 22 12 22 4 0 14 20 21 45 7 25 16 45 20
45 4 0 15 32 24 70 9 39 21 72 25 75 4 3 13 29 20 57 6 29 18 67 25 83 7 17
16 55 20 85 4 30 11 60 16 66 5 6 12 39 15 73 l7 61 -86 0 c-97 0 -88 9 -103
-110 -3 -30 -10 -59 -14 -65 -4 -5 -15 -54 -25 -107 -9 -54 -20 -98 -24 -98
-4 0 -13 -29 -20 -65 -7 -36 -17 -65 -21 -65 -4 0 -10 23 -13 52 -4 28 -10 54
-15 57 -4 3 -14 33 -21 66 -7 33 -19 74 -28 90 -8 17 -19 52 -24 79 -5 28 -13
52 -18 55 -4 4 -14 30 -21 59 l-12 52 -90 0 -90 0 7 -42z"/>
</g>
</svg>
